<svg xmlns="http://www.w3.org/2000/svg" viewBox="0 0 256 256">
  <defs>
    <linearGradient id="g" x1="0" x2="1" y1="0" y2="1">
      <stop offset="0%" stop-color="#ff6fa7"/>
      <stop offset="55%" stop-color="#f3c978"/>
      <stop offset="100%" stop-color="#7de1d7"/>
    </linearGradient>
  </defs>
  <rect width="256" height="256" rx="56" fill="#120a12"/>
  <circle cx="128" cy="128" r="88" fill="none" stroke="url(#g)" stroke-width="14" opacity="0.9"/>
  <path d="M94 148c8 16 23 24 34 24 22 0 40-17 40-40 0-19-12-33-31-43-17-9-24-16-24-27 0-10 7-18 19-18 10 0 18 4 24 11l15-18c-10-11-24-17-41-17-28 0-48 18-48 43 0 20 10 33 32 45 16 9 23 16 23 27 0 11-9 19-21 19-11 0-21-5-29-15l-13 9z" fill="#fff8f4"/>
  <circle cx="188" cy="70" r="10" fill="#fff8f4" opacity="0.95"/>
</svg>
